<svg xmlns="http://www.w3.org/2000/svg" width="435" height="512" viewBox="0 0 435 512">
    <g fill="none" fill-rule="evenodd">
        <path fill="#00A1D8" fill-rule="nonzero" d="M57.081 399.889L10.836 510.955 434.815 510.955 368.848 368.447 314.569 409.759 188.974 395.116z"/>
        <path fill="#078EBF" fill-rule="nonzero" d="M48.543 443.9c-1.433 18.21 15.543 26.529 30.076 30.819 11.567 3.424 23.577 5.72 35.487 7.594 23.96 3.766 48.264 4.975 72.486 4.31 5.107-.14 11.042-.826 13.727-5.156 2.442-3.948.968-9.125-1.272-13.194-8.196-14.845-24.707-23.103-40.916-28.139-18.995-5.902-38.797-8.62-58.498-11.32-16.775-2.296-43.097-12.327-50.121 10.031-.505 1.632-.828 3.324-.97 5.056z"/>
        <path fill="#078EBF" fill-rule="nonzero" d="M393.253 426.276c-.04-2.98-1.534-5.922-4.522-7.573l-.141-.06-67.32-36.801-67.318-36.78c-1.11-.605-2.261-1.149-3.412-1.632-2.382-.967-4.844-1.672-7.327-2.075-1.373-.221-2.745-.362-4.138-.423v.161c-.404-.02-2.362-.02-2.745-.02-5.592 0-9.609 1.39-14.675 4.15l-134.558 73.5c-1.05.564-2.079 1.208-3.048 1.893-5.43 3.787-4.885 12.005.97 15.107 35.667 18.894 98.142 52.35 131.085 70.036 13.504 7.25 29.814 6.908 43.035-.867l129.47-70.559c3.07-1.672 4.623-4.733 4.644-7.795v-.262z"/>
        <path fill="#E6BF97" fill-rule="nonzero" d="M361.52 287.978c1.959 10.05 7.53 19.397 15.342 26.044 9.124 7.775 21.82 11.803 18.853 26.89-4.743 24.211-37.1 27.374-43.48 50.175-.928 3.324-1.21 6.95.04 10.172 2.342 6.003 9.528 8.964 15.968 8.44 6.6-.524 13.02-4.008 18.914-6.687 6.66-3.002 12.979-7.997 18.57-12.65 14.695-12.186 23.718-26.407 26.827-42.259 2.422-12.367.545-25.5-5.289-36.982-10.314-20.243-32.519-33.799-53.734-40.144-3.007-.906-6.46-1.611-9.144.04-3.007 1.874-3.694 5.923-3.653 9.447.04 2.518.302 5.036.787 7.514z"/>
        <path fill="#E1AC87" fill-rule="nonzero" d="M248.865 354.388c-.08-.04-.162-.081-.242-.141.08.04.161.08.242.14m-.424-.241c-24.707-13.254-65.058-34.887-99.495-53.257 35.224 18.733 75.757 40.527 99.495 53.257"/>
        <path fill="#FFF" fill-rule="nonzero" d="M376.761 350.238c.06-.02.1-.06.161-.08-.06.02-.12.04-.161.08"/>
        <path fill="#651A13" fill-rule="nonzero" d="M153.589 246.061c6.923-4.37 14.533-7.574 22.79-9.266v-5.901l-13.162 2.014-9.628 13.153z"/>
        <g fill-rule="nonzero">
            <path fill="#E6BF97" d="M129.632 77.972c2.564 6.99 12.858 49.228 12.858 49.228 2.281-.604 12.616-1.793 15.16 7.634 2.563 8.903-3.351 12.227-6.884 12.83 0 0 11.587 57.588 6.036 70.762-7.449 17.866-27.735 42.621-67.097 32.731-17.077-4.35-31.167-16.456-39.2-32.087-14.191-28.119-18.47-40.225-18.47-40.225S5.43 187.87 6.742 162.752c-.121-14.785 22.325-13.274 22.325-13.274S16.492 127.38 18.672 97.67c2.644-35.088 89.624-61.435 110.96-19.7z" transform="translate(57.02)"/>
            <path fill="#D19863" d="M27.008 154.876c-2.765.745-8.498 6.103-6.338 10.937-.605 1.028-1.615 1.833-2.745 2.135-1.797.484-4.179.06-6.036-1.692 3.775 5.62 12.697 4.976 15.624 4.19.323-.08.484-.12.646-.181 0 0-5.975-9.226-.08-15.329-.223-.1-.586-.181-1.07-.06zM85.547 135.942c-14.675 3.928-28.2 10.837-31.813 18.249l70.307-18.773c-8.499-4.33-24.122-3.303-38.494.524z" transform="translate(57.02)"/>
            <path fill="#26231E" d="M116.996 136.445c.08.323.12.484.222.806l-8.64 2.317c-.08-.323-.12-.484-.222-.806-1.493-6.224-.888-11.784 1.393-12.408 2.422-.645 5.733 3.867 7.247 10.091zM68.692 149.337c.08.322.12.483.222.805l-8.64 2.317c-.08-.323-.12-.484-.222-.806-1.655-6.184-1.05-11.743 1.393-12.408 2.281-.604 5.591 3.908 7.247 10.092z" transform="translate(57.02)"/>
            <path fill="#2B2422" d="M54.219 56.077c-4.441 1.853-7.732 5.7-10.578 9.95 7.328-5.096 15.503-8.802 23.9-11.541 1.776-.564 3.593-.967 5.37-1.531-6.783-.04-13.202.685-18.692 3.122z" transform="translate(57.02)"/>
            <path fill="#D48C29" d="M124.364 62.28l4.36-4.652 11.728 54.244c.645 2.437 5.268 17.08 2.926 18.047-2.684 1.068-6.075-9.003-7.63-12.79l-19.317-51.182 7.933-3.666z" transform="translate(57.02)"/>
            <path fill="#D48C29" d="M28.401 158.18c3.27 3.665 3.472-5.983 3.19-10.958L27.19 98.175s85.062-5.439 100.08-32.289c9.366-14.019-11.445-21.19-11.445-21.19s11.143-42.56-16.37-21.27C78.32-21.512 76.382.624 16.572 72.916 4.28 72.01-7.226 94.952 5.813 114.329c12.314 18.51 17.118 24.735 17.118 24.735l4.118 16.698c.222.786.646 1.732 1.352 2.417z" transform="translate(57.02)"/>
            <path fill="#502618" d="M97.355 185.815c-16.794 4.492-32.781 9.447-32.478 10.595 5.228 19.518 25.252 30.918 44.67 25.742 19.58-5.217 31.207-25.078 25.98-44.596-.324-1.148-19.742 3.324-38.172 8.259z" transform="translate(57.02)"/>
            <path fill="#D15F69" d="M109.547 222.152c11.607-3.102 20.428-11.34 24.586-21.613-8.215-2.518-21.8-1.994-36.515 1.954-9.306 2.477-17.542 5.942-23.82 9.749 8.923 9.245 22.487 13.455 35.75 9.91z" transform="translate(57.02)"/>
        </g>
        <path fill="#E6BF97" fill-rule="nonzero" d="M6.738 363.069c-.928 1.813-1.695 3.686-2.381 5.418-5.915 14.583-5.814 29.57.343 43.488 3.936 9.004 10.436 17.04 18.994 24.03 7.045 5.861 15.765 11.038 25.777 15.55 15.866 7.13 35.77 13.073 59.144 17.383 38.676 7.372 74.162 8.38 75.676 8.38 11.405.301 20.892-8.662 21.215-20.042.323-11.381-8.68-20.868-20.084-21.17-.384 0-34.114-1.068-69.56-7.735-20.206-3.847-36.718-8.641-49.414-14.523-12.637-5.66-21.195-12.287-23.88-18.551-1.716-3.706-1.675-7.09.08-11.3 2.241-5.479 7.187-11.864 14.11-18.37 6.682-6.063 15.12-12.166 25.05-18.29 17.441-10.796 33.206-17.16 33.428-17.241 10.598-4.452 15.604-16.477 11.304-26.971-4.3-10.515-16.492-15.57-27.028-11.28-.767.363-19.015 7.916-39.342 20.284-12.132 7.452-22.77 15.288-31.288 23.063-9.931 9.124-17.32 18.41-22.144 27.877z"/>
        <path fill="#A31E22" fill-rule="nonzero" d="M81.768 352.051l-28.663-45.583 66.956-38.391 53.855 18.47s-6.803 9.971-18.127 19.539c-8.962 7.553-20.408 13.274-35.648 21.975-39.039 22.7-38.373 23.99-38.373 23.99z"/>
        <g>
            <g fill-rule="nonzero">
                <path fill="#EE966B" d="M292.146 93.119v124.863c0 10.676-5.833 20.526-15.24 25.662l-116.673 63.751c-8.78 4.794-19.378 4.794-28.159 0L15.402 243.644C6.015 238.508.162 228.678.162 217.982V93.12c0-10.676 5.833-20.525 15.24-25.642l116.672-63.75c8.761-4.795 19.379-4.795 28.16 0l116.672 63.75c9.407 5.117 15.24 14.966 15.24 25.642" transform="translate(86.896 190.75)"/>
                <path fill="#ED856C" d="M156.459 309.127c-5.572-2.377-9.649-7.896-9.649-14.563-.02-34.484-.182-85.404-.343-115.578-.02-2.336-.02-4.632-.04-6.888v-.121c0-1.45-.021-2.82-.021-4.11-.06-10.272 6.177-19.437 15.644-23.485 1.01-.423 1.998-.907 2.967-1.43.061-.04.142-.081.202-.121.04-.02.101-.06.162-.081 20.63-11.078 54.32-29.126 83.084-44.475 12.353-6.566 23.92-12.69 33.346-17.604 1.413-.745 2.927-1.108 4.4-1.128h.465c.787.02 1.554.12 2.301.322 2.06 4.029 3.17 8.56 3.17 13.234v124.863c0 10.676-5.834 20.525-15.24 25.662l-116.674 63.75c-1.23.686-2.482 1.27-3.774 1.753" transform="translate(86.896 190.75)"/>
                <path fill="#FADED5" d="M156.459 309.127c1.292-.483 2.563-1.067 3.795-1.732l116.672-63.751c9.387-5.136 15.24-14.966 15.24-25.662 0 10.676-5.833 20.526-15.24 25.662l-116.672 63.751c-1.252.665-2.503 1.249-3.795 1.732" transform="translate(86.896 190.75)"/>
                <g>
                    <path fill="#FFF" d="M145.094 3.706c-4.28-2.336-9.023-3.545-13.746-3.585 4.723.06 9.467 1.249 13.746 3.585" transform="translate(86.896 190.75) translate(15.14)"/>
                    <path fill="#F1AD87" d="M149.878 142.951c.06-.04.141-.08.202-.12-.06.04-.121.08-.202.12m.364-.18c19.822-10.636 53.673-28.825 83.084-44.475-28.765 15.328-62.455 33.396-83.084 44.474" transform="translate(86.896 190.75) translate(15.14)"/>
                    <path fill="#F19F88" d="M38.797 102.002L.262 80.993c-.02-.02-.06-.02-.08-.04l38.615 21.049" transform="translate(86.896 190.75) translate(15.14)"/>
                </g>
                <path fill="#FFF" d="M124.02 281.472h-.222c-1.03-.02-2.079-.262-3.088-.766l-33.67-16.799c-2.382-1.188-3.916-3.625-3.956-6.284v-24.151c.06-4.089 3.432-7.03 7.166-7.03 1.07 0 2.16.242 3.19.766l33.669 16.799c2.422 1.208 3.956 3.686 3.956 6.385v23.929c0 4.11-3.33 7.09-7.045 7.15m-32.922-29.508c-.747 0-1.474.423-1.817 1.148-.464 1.007-.04 2.195.969 2.659l29.996 13.959.848.18c.746 0 1.473-.422 1.816-1.147.464-1.007.04-2.196-.969-2.66l-29.996-13.958c-.282-.12-.565-.181-.847-.181m0-11.965c-.747 0-1.474.423-1.817 1.148-.464 1.007-.04 2.196.969 2.66l29.996 13.958.848.181c.746 0 1.473-.423 1.816-1.148.464-1.007.04-2.175-.969-2.659L91.945 240.18c-.282-.12-.565-.18-.847-.18M58.235 139.487c-.04-.02-.08-.04-.12-.08.04.02.08.06.12.08" transform="translate(86.896 190.75)"/>
            </g>
            <g>
                <path d="M3.452 76.501c-.081.06-.162.141-.242.202.08-.06.161-.121.242-.202zM41.138 97.349c-.06.08-.12.14-.181.221.06-.08.12-.14.181-.221zM3.936 76.119c-.08.06-.181.14-.262.201.08-.06.181-.141.262-.201zM4.44 75.716c-.08.06-.18.14-.262.201.081-.06.182-.14.263-.201zM41.582 96.845c-.1.101-.201.222-.302.323.1-.121.201-.222.302-.323zM42.43 95.98c-.04.04-.08.08-.141.12.04-.04.1-.08.141-.12zM1.494 78.415c-.06.08-.121.14-.182.221.04-.08.101-.14.182-.221zM1.817 78.052c-.06.08-.142.141-.202.222.08-.08.141-.161.202-.222zM2.584 77.287l-.222.221c.08-.08.141-.16.222-.221zM41.885 96.523l-.161.161c.06-.06.1-.12.161-.161zM3.008 76.904c-.081.06-.162.141-.222.202.06-.06.14-.141.222-.202zM42.026 96.382l.142-.141c-.04.04-.101.08-.142.141zM38.898 100.874c-.06.12-.101.241-.162.342.06-.1.121-.221.162-.342zM40.089 98.779c-.06.1-.142.201-.202.322.06-.12.12-.221.202-.322zM39.24 100.209c-.06.1-.12.222-.16.322.06-.12.1-.221.16-.322zM40.775 97.792c-.06.08-.121.14-.162.222.061-.06.122-.141.162-.222zM5.551 74.89c-.1.06-.182.14-.283.201.101-.06.202-.12.283-.201zM4.986 75.313c-.101.06-.182.14-.263.201.081-.06.162-.14.263-.201zM6.157 74.487l-.243.181c.081-.08.162-.12.243-.181zM40.432 98.275l-.182.242.182-.242zM1.17 78.798c-.06.08-.12.14-.18.221.06-.08.12-.161.18-.221zM1.978 77.871c.06-.08.141-.141.202-.222-.06.081-.121.162-.202.222zM.363 79.905c-.04.081-.1.162-.141.242.04-.08.101-.161.141-.242zM39.604 99.544c-.06.121-.12.222-.202.343.081-.121.142-.222.202-.343zM43.157 95.395c-.02.02-.04.02-.06.04.02-.02.04-.04.06-.04zM42.915 95.576c-.04.02-.06.06-.101.08.02-.02.06-.06.1-.08zM43.056 95.476c-.02.02-.04.04-.08.06.02-.04.06-.06.08-.06zM.888 79.16c-.06.08-.12.161-.161.222.04-.06.1-.141.161-.222zM42.733 95.717c-.06.06-.121.101-.202.182.06-.06.141-.121.202-.182zM.606 79.543c-.061.08-.101.161-.162.221.06-.08.121-.16.162-.221z" transform="translate(86.896 190.75) translate(53.896 21.552)"/>
                <path fill="#FFF" fill-rule="nonzero" d="M139.16.1c-.04.02-.081.041-.101.061l28.906 15.792 6.48 3.545.1-.06L139.16.1l8.68 4.733-8.68-4.733zM39.887 99.101c-.101.141-.182.302-.263.443.081-.16.162-.302.263-.443zM40.25 98.517c-.06.08-.121.181-.182.262.081-.1.142-.181.182-.262zM43.157 95.375s0 .02 0 0c0 .02 0 0 0 0zM41.28 97.168c-.04.06-.101.12-.162.18.06-.06.121-.12.162-.18zM42.289 96.12l-.121.121.12-.12zM41.724 96.684c-.04.06-.101.1-.142.161.04-.06.101-.1.142-.16zM42.794 95.657c-.02.02-.04.04-.081.06.04-.02.06-.04.08-.06zM42.531 95.899c-.04.02-.06.06-.1.1.04-.04.06-.08.1-.1zM40.613 98.014l-.181.241.181-.241zM42.975 95.516l-.06.06.06-.06zM43.096 95.435l-.04.04c0-.02.02-.04.04-.04zM40.957 97.57c-.06.08-.122.141-.162.222.04-.08.101-.141.162-.222z" transform="translate(86.896 190.75) translate(53.896 21.552)"/>
                <path fill="#FFF" fill-rule="nonzero" d="M139.059.161c.04-.02.08-.04.1-.06l8.68 4.733-8.68-4.733c-.04.02-.08.04-.1.06zM.464 79.764c-.04.04-.06.101-.08.141.02-.04.04-.1.08-.14zM1.978 77.871l-.161.161c.06-.04.12-.1.161-.161zM.99 79.02c-.041.04-.082.1-.122.14.04-.04.08-.1.121-.14zM1.292 78.636c-.04.06-.08.101-.121.162.04-.06.08-.101.12-.162zM1.635 78.254c-.04.06-.1.1-.141.16.04-.04.08-.1.141-.16zM.706 79.382c-.04.04-.06.1-.1.14.04-.04.08-.08.1-.14zM2.2 77.67l.162-.162c-.06.04-.121.101-.162.162zM39.423 99.887c-.061.1-.122.201-.162.322.04-.12.1-.222.162-.322zM38.635 101.478l.121-.242-.12.242zM.141 80.288c.02-.04.06-.1.081-.14-.02.04-.06.08-.08.14zM5.914 74.648l-.363.242.363-.242zM6.803 74.064c-.222.141-.424.282-.646.423.222-.141.424-.282.646-.423zM5.289 75.091c-.101.08-.202.141-.303.222.1-.08.202-.141.303-.222zM2.765 77.106l-.181.18.181-.18zM39.08 100.531c-.061.121-.122.222-.162.343.04-.121.1-.222.161-.343zM4.178 75.917c-.08.06-.161.121-.242.202.08-.06.162-.141.242-.202zM4.723 75.514c-.08.06-.181.141-.262.202.08-.06.162-.141.262-.202zM3.674 76.32c-.081.06-.142.12-.222.181.08-.06.161-.12.222-.181zM3.21 76.723c-.061.06-.142.12-.202.181.06-.06.141-.12.202-.181zM41.885 96.523l.141-.141c-.06.04-.1.08-.14.141z" transform="translate(86.896 190.75) translate(53.896 21.552)"/>
                <path fill="#FBBD95" fill-rule="nonzero" d="M167.864 28.28c11.162 1.007 22.385 2.296 32.014 5.096l-13.948-7.614-11.506-6.284-14.271 8.238c2.583.161 5.147.343 7.71.564z" transform="translate(86.896 190.75) translate(53.896 21.552)"/>
                <path fill="#FFF" fill-rule="nonzero" d="M139.039.161c-17.824 9.89-43.137 23.95-66.936 37.203C95.902 24.09 121.215 10.051 139.039.161z" transform="translate(86.896 190.75) translate(53.896 21.552)"/>
            </g>
            <g>
                <path d="M45.6 98.457c-.081.06-.162.14-.243.201.08-.06.162-.14.242-.201zM84.174 118.398c-.1.1-.202.221-.283.322.081-.12.182-.222.283-.322zM46.043 98.054c-.08.06-.161.14-.242.201.08-.06.162-.12.242-.201zM46.528 97.671c-.08.06-.162.141-.263.202.081-.06.182-.141.263-.202zM45.175 98.84l-.222.22c.081-.08.142-.16.222-.22zM83.73 118.901c-.06.08-.121.141-.182.222.06-.08.121-.141.182-.222zM84.477 118.075l-.162.162c.06-.06.101-.121.162-.162zM44.085 99.967c-.06.08-.12.141-.181.222.04-.06.1-.141.181-.222zM44.408 99.605c-.06.08-.14.14-.202.221.081-.08.142-.16.202-.221zM48.748 96.04c-.08.06-.161.12-.262.18.1-.08.182-.12.262-.18zM82.196 121.097c-.06.1-.121.221-.202.342.08-.12.141-.221.202-.342zM83.023 119.828l-.181.242.181-.242zM81.49 122.426c-.061.121-.102.222-.162.343.06-.101.121-.222.161-.343zM81.832 121.762c-.06.1-.12.221-.161.322.06-.121.1-.222.161-.322zM47.032 97.268c-.08.06-.181.141-.262.202.08-.06.182-.141.262-.202zM82.68 120.331c-.06.101-.141.202-.202.323.061-.121.122-.222.202-.323zM43.762 100.35c-.06.08-.12.141-.181.222.06-.081.12-.162.181-.222zM47.577 96.865c-.1.06-.181.141-.262.202.08-.06.162-.141.262-.202zM83.367 119.344c-.061.081-.122.141-.162.222.06-.06.121-.141.162-.222zM48.143 96.442c-.101.06-.182.141-.283.202.101-.06.202-.121.283-.202zM84.618 117.934l.141-.14c-.04.04-.1.08-.14.14zM85.648 117.028c-.02.02-.04.04-.081.06.02-.04.06-.06.08-.06zM85.506 117.129c-.04.02-.06.06-.1.08.02-.02.06-.06.1-.08zM44.57 99.423c.06-.08.141-.14.202-.221-.06.08-.121.161-.202.221zM85.748 116.947c-.02.02-.04.02-.06.04.02-.02.04-.04.06-.04zM42.955 101.458c-.04.08-.1.161-.141.221.04-.06.1-.14.141-.221zM43.48 100.713c-.06.08-.121.16-.162.221.04-.06.101-.14.162-.221zM85.022 117.532c-.04.04-.08.08-.141.12.06-.04.1-.08.14-.12zM85.325 117.27c-.061.06-.122.1-.202.181.06-.06.141-.12.202-.181zM43.197 101.095c-.06.08-.1.161-.161.222.06-.08.12-.161.161-.222z" transform="translate(86.896 190.75) translate(11.304)"/>
                <path fill="#F2B182" fill-rule="nonzero" d="M268.267 69.109c-.848-.584-1.736-1.128-2.644-1.632L235.122 50.82l-52.866-28.885-.424-.221.424.221L148.95 3.726c-3.492-1.893-7.267-3.041-11.102-3.444-.303-.02-.586-.06-.889-.08-.585-.04-1.19-.061-1.776-.081h-.646c-.928 0-1.837.06-2.765.161-.808.08-1.595.201-2.402.342-.122.02-.222.04-.344.06-2.846.585-5.652 1.572-8.276 3.002L4.077 67.437l-.1.06h-.02C1.351 68.948.06 71.528.04 74.125v.081c.02 2.639 1.333 5.257 3.957 6.728l38.615 21.049c.02-.04.04-.06.06-.101.02-.02.02-.04.04-.06.02-.04.061-.081.082-.142l73.576 40.507.929.524c5.57 3.082 11.748 4.673 17.945 4.733h.928c6.015-.08 12.03-1.57 17.521-4.512.06-.04.142-.08.202-.12.04-.02.101-.061.162-.081 19.822-10.635 53.673-28.824 83.084-44.475 11.182-5.962 21.618-11.521 30.258-16.094 2.685-1.41 4.077-4.068 4.118-6.727v-.222c-.02-2.276-1.09-4.592-3.25-6.103zM181.75 21.653l.485.262-5.794 2.679c1.837-1.007 3.614-1.994 5.31-2.94z" transform="translate(86.896 190.75) translate(11.304)"/>
                <path fill="#FFF" fill-rule="nonzero" d="M53.997 40.97l131.347 75.937s7.126 4.794 6.197 17.202c-.504 7.19-1.493 13.395-1.493 13.395s.504 8.137 6.459 5.559c5.975-2.578 24.384-11.522 28.36-13.999 3.977-2.478 4.825-3.867 5.027-9.77 0-6.948-.121-16.375-.121-21.21 0-4.833-1.17-7.996-8.054-12.508-11.062-6.627-91.481-51.283-132.357-73.963L53.997 40.97" transform="translate(86.896 190.75) translate(11.304)"/>
                <path fill="#F8C7BC" fill-rule="nonzero" d="M189.906 123.03c.97 2.236 1.716 5.157 1.716 8.843 0 .725-.02 1.47-.08 2.236-.122 1.793-.283 3.545-.445 5.136-.484 4.774-1.05 8.279-1.05 8.279s.364 6.063 4.32 6.063c.626 0 1.333-.141 2.16-.504 5.652-2.437 22.386-10.555 27.574-13.536.04-.02.08-.04.1-.06.041-.02.081-.04.122-.08.161-.101.323-.182.444-.262.04-.02.06-.04.1-.06 3.977-2.478 4.825-3.868 5.027-9.77 0-6.95-.121-16.376-.121-21.21 0-2.316-.263-4.23-1.292-6.103l-38.575 21.029z" transform="translate(86.896 190.75) translate(11.304)"/>
                <path fill="#FFF" fill-rule="nonzero" d="M189.523 25.903l-7.287-3.988 7.287 3.988zM85.748 116.927s0 .02 0 0c0 .02 0 0 0 0zM82.478 120.654c-.1.14-.181.302-.282.463.1-.161.181-.322.282-.463zM84.88 117.673l-.12.12.12-.12zM82.842 120.07c-.06.08-.121.18-.182.261.08-.1.141-.18.182-.261zM85.688 116.988l-.04.04c0-.02.02-.04.04-.04zM83.871 118.72c-.04.06-.1.12-.161.181.06-.06.12-.12.161-.181zM85.567 117.068l-.06.06.06-.06zM85.385 117.21c-.02.02-.04.04-.08.06.04-.02.06-.04.08-.06zM83.205 119.566l-.182.242.182-.242zM83.548 119.123c-.06.08-.12.14-.161.221.04-.08.1-.14.161-.221zM85.123 117.451c-.04.02-.06.06-.101.1.04-.04.06-.08.1-.1zM84.315 118.237c-.04.06-.1.1-.141.16.04-.06.1-.12.141-.16zM44.57 99.423l-.162.162c.06-.04.121-.101.162-.162zM45.357 98.658l-.182.181.182-.18zM43.58 100.572c-.04.04-.08.1-.12.14.04-.04.08-.1.12-.14zM44.227 99.806c-.04.06-.101.1-.142.161.04-.04.081-.1.142-.16zM43.056 101.317c-.04.04-.06.1-.101.14.04-.04.06-.1.1-.14zM43.884 100.189c-.04.04-.081.1-.122.14.04-.04.081-.08.122-.14zM43.298 100.934c-.04.04-.06.1-.1.141.04-.04.08-.08.1-.14zM81.227 123.03l.121-.241-.121.242zM44.792 99.222c.06-.06.121-.12.182-.161-.081.04-.142.1-.182.161zM42.733 101.84c.02-.04.06-.1.08-.14-.02.04-.06.08-.08.14zM45.801 98.275c-.06.06-.141.121-.202.182.06-.06.142-.121.202-.182zM48.506 96.2c-.121.081-.242.162-.343.242.1-.08.222-.16.343-.241zM49.394 95.617c-.222.14-.424.282-.646.423.222-.141.424-.282.646-.423zM84.477 118.075l.141-.14c-.06.04-.1.08-.141.14zM82.014 121.44c-.06.1-.121.22-.161.322.04-.121.1-.222.161-.323zM81.671 122.084c-.06.12-.121.221-.161.342.04-.12.1-.221.161-.342zM47.88 96.644c-.1.08-.202.14-.303.221.101-.08.202-.14.303-.221zM47.315 97.067c-.08.06-.182.14-.262.201.08-.06.161-.14.262-.201zM46.265 97.873c-.08.06-.161.12-.222.18.081-.06.162-.12.222-.18zM46.77 97.47c-.08.06-.161.12-.242.201.08-.06.161-.14.242-.201z" transform="translate(86.896 190.75) translate(11.304)"/>
                <path fill="#ED856B" fill-rule="nonzero" d="M189.523 25.903L189.523 25.903 190.431 26.387z" transform="translate(86.896 190.75) translate(11.304)"/>
            </g>
        </g>
        <path fill="#E6BF97" fill-rule="nonzero" d="M424.016 370.36c-6.238 10.575-15.382 19.136-25.616 25.803-12.475 8.118-26.504 13.616-38.696 18.128-7.852 2.9-15.846 5.439-23.96 7.594-6.863 1.813-13.222 4.33-20.367 2.88-8.923-1.832-15.705-10.917-14.938-19.96.727-8.46 7.55-15.108 15.624-16.9 10.395-2.317 20.569-5.016 30.581-8.722 10.052-3.726 20.388-7.11 29.552-12.77 4.521-2.78 8.76-6.144 11.97-10.394 3.25-4.29 5.147-9.99 10.214-12.508 4.037-1.995 8.942-1.813 13.14-.121 6.339 2.558 8.64 7.674 12.435 12.65 1.655 2.175 3.734 3.705 3.532 6.767-.181 2.72-2.14 5.277-3.471 7.554zM185.442 436.106c-.384 0-34.114-1.068-69.56-7.735-15.967-3.021-29.612-6.667-40.896-10.958-.242 7.634-.908 15.268-1.574 22.903 0 6.586-.445 13.193-1.191 19.76 10.94 3.424 23.112 6.405 36.414 8.862 38.676 7.372 74.162 8.38 75.676 8.38 11.405.301 20.892-8.662 21.215-20.042.303-11.381-8.7-20.868-20.084-21.17z"/>
        <path fill="#FFF" fill-rule="nonzero" d="M189.338 182.572l-1.272-4.734c-6.843 1.169-20.529 4.452-33.69 7.977-11.566 3.102-22.75 6.405-28.502 8.54l1.292 4.794 62.172-16.577z"/>
        <path fill="#233253" fill-rule="nonzero" d="M97.265 440l.735-1-1 .595c.03.215.265.405.265.405z"/>
        <path fill="#233253" fill-rule="nonzero" d="M98 439l-1 .595c0 .19.235.405.235.405l.765-1z"/>
    </g>
</svg>
